<svg width="33" height="32" viewBox="0 0 33 32" fill="none" xmlns="http://www.w3.org/2000/svg">
<path d="M27.892 26.1265L25.3346 23.5964L23.061 21.3477C22.6221 20.9143 21.9233 20.8926 21.4583 21.2979L19.4381 23.0616C19.0033 23.4449 18.3536 23.4531 17.9093 23.0807C16.9312 22.2575 15.746 21.431 13.4414 18.0096C11.1369 14.5883 10.8102 13.1827 10.4133 11.9675C10.2345 11.416 10.4854 10.8167 11.0038 10.5572L13.3957 9.34479C13.9457 9.06555 14.1874 8.40949 13.95 7.84016L12.7545 4.98057L11.3288 1.57067C11.0862 0.990269 10.4305 0.702727 9.83922 0.91737L7.24764 1.8586C6.54857 2.10623 5.9715 2.61335 5.63599 3.27481C4.5515 5.46549 3.43129 10.5453 10.022 20.3164C16.6127 30.0876 21.7419 30.9514 24.1793 30.7664C24.9183 30.7032 25.6047 30.3581 26.0961 29.8027L27.9396 27.7524C28.3602 27.2846 28.3392 26.5689 27.892 26.1265Z" fill="white"/>
</svg>
